<svg xmlns="http://www.w3.org/2000/svg" width="24" height="24" fill="none"><g stroke="#130F26" stroke-linecap="round" stroke-linejoin="round" stroke-width="1.5"><path d="M6.07 16.46s.81-1.64 2-1.64c1.18 0 1.78 1.38 3.1 1.38 1.3 0 2.77-3.45 4.25-3.45s2.55 2.39 2.55 2.39"/><path d="M10.14 9.1a1.56 1.56 0 1 1-3.12 0 1.56 1.56 0 0 1 3.12 0Z" clip-rule="evenodd"/><path d="M2.75 12c0 6.94 2.31 9.25 9.25 9.25 6.94 0 9.25-2.31 9.25-9.25 0-6.94-2.31-9.25-9.25-9.25-6.94 0-9.25 2.31-9.25 9.25Z" clip-rule="evenodd"/></g></svg>