<svg xmlns="http://www.w3.org/2000/svg" width="24" height="24" fill="none"><g stroke="#130F26" stroke-linecap="round" stroke-linejoin="round" stroke-width="1.5" clip-rule="evenodd"><path d="M21.44 14c-2.66 0-2.66-4.12 0-4.12 0-4.77 0-6.47-9.4-6.47-9.39 0-9.39 1.7-9.39 6.47 2.66 0 2.66 4.11 0 4.11 0 4.77 0 6.47 9.4 6.47 9.39 0 9.39-1.7 9.39-6.47Z"/><path d="M12.04 9.17c-.68 0-.74 1.1-1.15 1.48-.4.38-1.67-.06-1.85.62-.17.69.97.92 1.1 1.5.15.6-.55 1.42.05 1.83.6.4 1.23-.52 1.85-.52.63 0 1.27.93 1.86.52.6-.41-.1-1.24.04-1.82.14-.59 1.28-.82 1.1-1.5-.17-.69-1.43-.25-1.84-.63-.4-.39-.47-1.48-1.16-1.48Z"/></g></svg>