<svg xmlns="http://www.w3.org/2000/svg" width="24" height="24" fill="none"><g stroke="#130F26" stroke-linecap="round" stroke-linejoin="round" stroke-width="1.5"><path d="M5.52 7A35.93 35.93 0 0 1 16 5.5c2.03.04 2.88.77 3.5 2 1 2 .79 6.99-1 8.59-1.79 1.6-9.17 1.75-11.63 0-2.6-1.85-1.24-6.9-1.33-10.35C5.6 3.81 3.5 3.5 3.5 3.5M13 10.5h2.77"/><path fill="#130F26" fill-rule="evenodd" d="M7.26 20.13a.54.54 0 1 1 0 1.09.54.54 0 0 1 0-1.1ZM17.6 20.13a.54.54 0 1 1 0 1.09.54.54 0 0 1 0-1.1Z" clip-rule="evenodd"/></g></svg>