<svg xmlns="http://www.w3.org/2000/svg" width="24" height="24" fill="none"><g stroke="#130F26" stroke-linecap="round" stroke-linejoin="round" stroke-width="1.5"><path d="M11.97 20.37c-3.24 0-6-.5-6-2.45 0-1.97 2.75-3.67 6-3.67 3.24 0 6 1.69 6 3.65s-2.74 2.47-6 2.47ZM11.97 11.45a3.85 3.85 0 1 0-.02 0h.02Z" clip-rule="evenodd"/><path d="M18.36 10.4a2.9 2.9 0 0 0-.16-5.65M18.94 13.54c1.76 0 3.26 1.2 3.26 2.26 0 .62-.52 1.3-1.3 1.49M5.58 10.4a2.9 2.9 0 0 1 .17-5.65M5 13.54c-1.75 0-3.25 1.2-3.25 2.26 0 .62.52 1.3 1.3 1.49"/></g></svg>